<svg width="15" height="12" viewBox="0 0 15 12" fill="none" xmlns="http://www.w3.org/2000/svg">
<path d="M9.53497 0.412695L14.8169 5.69465C14.8715 5.74916 14.9148 5.81388 14.9443 5.88513C14.9739 5.95638 14.9891 6.03274 14.9891 6.10987C14.9891 6.187 14.9739 6.26337 14.9443 6.33461C14.9148 6.40586 14.8715 6.47059 14.8169 6.52509L9.53497 11.807C9.42485 11.9172 9.27549 11.979 9.11975 11.979C8.96402 11.979 8.81466 11.9172 8.70453 11.807C8.59441 11.6969 8.53254 11.5476 8.53254 11.3918C8.53254 11.2361 8.59441 11.0867 8.70453 10.9766L12.9851 6.69675L1.49027 6.69675C1.33461 6.69675 1.18534 6.63492 1.07528 6.52486C0.965214 6.4148 0.903381 6.26552 0.903381 6.10987C0.903381 5.95422 0.965214 5.80494 1.07528 5.69488C1.18534 5.58482 1.33461 5.52299 1.49027 5.52299L12.9851 5.52299L8.70453 1.24314C8.59441 1.13301 8.53254 0.983653 8.53254 0.827916C8.53254 0.672178 8.59441 0.522818 8.70453 0.412695C8.81466 0.302572 8.96402 0.240705 9.11975 0.240705C9.27549 0.240705 9.42485 0.302572 9.53497 0.412695Z" fill="#E2E2E0"/>
</svg>
