<svg width="23" height="22" viewBox="0 0 23 22" fill="none" xmlns="http://www.w3.org/2000/svg">
<path d="M21.2168 0H2.6014C2.15257 0 1.72213 0.178296 1.40476 0.495665C1.08739 0.813035 0.909091 1.24348 0.909091 1.69231V20.3077C0.909091 20.7565 1.08739 21.187 1.40476 21.5043C1.72213 21.8217 2.15257 22 2.6014 22H21.2168C21.6656 22 22.0961 21.8217 22.4134 21.5043C22.7308 21.187 22.9091 20.7565 22.9091 20.3077V1.69231C22.9091 1.24348 22.7308 0.813035 22.4134 0.495665C22.0961 0.178296 21.6656 0 21.2168 0ZM21.2168 20.3077H2.6014V1.69231H21.2168V20.3077ZM8.52448 9.30769V16.0769C8.52448 16.3013 8.43533 16.5166 8.27664 16.6752C8.11796 16.8339 7.90274 16.9231 7.67832 16.9231C7.45391 16.9231 7.23869 16.8339 7.08 16.6752C6.92132 16.5166 6.83217 16.3013 6.83217 16.0769V9.30769C6.83217 9.08328 6.92132 8.86806 7.08 8.70937C7.23869 8.55069 7.45391 8.46154 7.67832 8.46154C7.90274 8.46154 8.11796 8.55069 8.27664 8.70937C8.43533 8.86806 8.52448 9.08328 8.52448 9.30769ZM17.8322 12.2692V16.0769C17.8322 16.3013 17.743 16.5166 17.5843 16.6752C17.4257 16.8339 17.2104 16.9231 16.986 16.9231C16.7616 16.9231 16.5464 16.8339 16.3877 16.6752C16.229 16.5166 16.1399 16.3013 16.1399 16.0769V12.2692C16.1399 11.7082 15.917 11.1701 15.5203 10.7734C15.1236 10.3767 14.5855 10.1538 14.0245 10.1538C13.4634 10.1538 12.9254 10.3767 12.5287 10.7734C12.132 11.1701 11.9091 11.7082 11.9091 12.2692V16.0769C11.9091 16.3013 11.8199 16.5166 11.6613 16.6752C11.5026 16.8339 11.2874 16.9231 11.0629 16.9231C10.8385 16.9231 10.6233 16.8339 10.4646 16.6752C10.3059 16.5166 10.2168 16.3013 10.2168 16.0769V9.30769C10.2178 9.10043 10.2949 8.90077 10.4334 8.74657C10.5719 8.59237 10.7622 8.49437 10.9681 8.47115C11.1741 8.44793 11.3814 8.50112 11.5508 8.62061C11.7201 8.7401 11.8397 8.9176 11.8869 9.11942C12.4593 8.73112 13.1267 8.50606 13.8173 8.46843C14.508 8.4308 15.1959 8.58202 15.8071 8.90583C16.4183 9.22965 16.9297 9.71384 17.2865 10.3064C17.6433 10.899 17.8319 11.5775 17.8322 12.2692ZM8.94755 6.34615C8.94755 6.59718 8.87311 6.84258 8.73365 7.0513C8.59418 7.26002 8.39596 7.42271 8.16404 7.51877C7.93211 7.61484 7.67691 7.63997 7.43071 7.591C7.1845 7.54202 6.95835 7.42114 6.78084 7.24364C6.60333 7.06613 6.48245 6.83998 6.43348 6.59377C6.38451 6.34756 6.40964 6.09236 6.50571 5.86044C6.60177 5.62852 6.76445 5.43029 6.97318 5.29083C7.1819 5.15136 7.42729 5.07692 7.67832 5.07692C8.01494 5.07692 8.33778 5.21065 8.5758 5.44867C8.81383 5.6867 8.94755 6.00953 8.94755 6.34615Z" fill="#E2E2E0"/>
</svg>
