<svg width="23" height="22" viewBox="0 0 23 22" fill="none" xmlns="http://www.w3.org/2000/svg">
<path d="M11.9091 0C8.99273 0.00285937 6.19678 0.997142 4.1346 2.76472C2.07242 4.5323 0.912424 6.92884 0.909088 9.42857C0.909088 11.7857 2.34825 14.8362 4.76023 17.5804C7.18711 20.3451 9.85919 22 11.9091 22C13.959 22 16.6311 20.349 19.0579 17.5804C21.4699 14.8304 22.9091 11.7857 22.9091 9.42857C22.9058 6.92884 21.7458 4.5323 19.6836 2.76472C17.6214 0.997142 14.8254 0.00285937 11.9091 0ZM17.5936 16.6395C15.6033 18.9053 13.3196 20.4286 11.9091 20.4286C10.4986 20.4286 8.21492 18.9053 6.22461 16.6395C4.07732 14.192 2.74242 11.4292 2.74242 9.42857C2.74242 7.34473 3.70819 5.34623 5.42728 3.87273C7.14636 2.39923 9.47794 1.57143 11.9091 1.57143C14.3402 1.57143 16.6718 2.39923 18.3909 3.87273C20.11 5.34623 21.0758 7.34473 21.0758 9.42857C21.0758 11.4292 19.7409 14.192 17.5936 16.6395ZM10.9924 11.7857C10.9924 10.7438 10.5095 9.74454 9.64999 9.00779C8.79045 8.27104 7.62466 7.85714 6.40909 7.85714C5.92286 7.85714 5.45654 8.0227 5.11273 8.3174C4.76891 8.6121 4.57575 9.0118 4.57575 9.42857C4.57575 10.4705 5.05864 11.4697 5.91818 12.2065C6.77772 12.9432 7.94351 13.3571 9.15909 13.3571C9.64532 13.3571 10.1116 13.1916 10.4555 12.8969C10.7993 12.6022 10.9924 12.2025 10.9924 11.7857ZM6.40909 9.42857C7.13843 9.42857 7.83791 9.67691 8.35363 10.119C8.86936 10.561 9.15909 11.1606 9.15909 11.7857C8.42974 11.7857 7.73027 11.5374 7.21454 11.0953C6.69882 10.6533 6.40909 10.0537 6.40909 9.42857ZM17.4091 7.85714C16.1935 7.85714 15.0277 8.27104 14.1682 9.00779C13.3086 9.74454 12.8258 10.7438 12.8258 11.7857C12.8258 12.2025 13.0189 12.6022 13.3627 12.8969C13.7065 13.1916 14.1729 13.3571 14.6591 13.3571C15.261 13.3571 15.857 13.2555 16.4131 13.0581C16.9691 12.8607 17.4744 12.5713 17.9 12.2065C18.3256 11.8417 18.6632 11.4086 18.8935 10.932C19.1239 10.4553 19.2424 9.94448 19.2424 9.42857C19.2424 9.0118 19.0493 8.6121 18.7055 8.3174C18.3616 8.0227 17.8953 7.85714 17.4091 7.85714ZM14.6591 11.7857C14.6591 11.1606 14.9488 10.561 15.4645 10.119C15.9803 9.67691 16.6797 9.42857 17.4091 9.42857C17.4091 10.0537 17.1194 10.6533 16.6036 11.0953C16.0879 11.5374 15.3884 11.7857 14.6591 11.7857ZM14.6591 16.5C14.6591 16.7084 14.5625 16.9082 14.3906 17.0556C14.2187 17.2029 13.9855 17.2857 13.7424 17.2857H10.0758C9.83264 17.2857 9.59948 17.2029 9.42757 17.0556C9.25567 16.9082 9.15909 16.7084 9.15909 16.5C9.15909 16.2916 9.25567 16.0918 9.42757 15.9444C9.59948 15.7971 9.83264 15.7143 10.0758 15.7143H13.7424C13.9855 15.7143 14.2187 15.7971 14.3906 15.9444C14.5625 16.0918 14.6591 16.2916 14.6591 16.5Z" fill="#E2E2E0"/>
</svg>
